<?xml version="1.0" encoding="utf-8"?>
<!-- Generator: Adobe Illustrator 18.0.0, SVG Export Plug-In . SVG Version: 6.00 Build 0)  -->
<!DOCTYPE svg PUBLIC "-//W3C//DTD SVG 1.1//EN" "http://www.w3.org/Graphics/SVG/1.1/DTD/svg11.dtd">
<svg version="1.1" xmlns="http://www.w3.org/2000/svg" xmlns:xlink="http://www.w3.org/1999/xlink" x="0px" y="0px"
	 viewBox="0 0 500 100" enable-background="new 0 0 500 100" xml:space="preserve">
<g id="Capa_1" display="none">
	<g display="inline">
		<g>
			<path fill="#FCEE21" d="M87.7,63.3c47.6,0,95.1,0,142.7,0c19.3,0,19.3-30,0-30c-47.6,0-95.1,0-142.7,0
				C68.3,33.3,68.3,63.3,87.7,63.3L87.7,63.3z"/>
		</g>
	</g>
</g>
<g id="Capa_2">
</g>
<g id="Capa_3">
	<g>
		<g>
			<g>
				<g>
					<g>
						<path fill="#1A1A1A" d="M127,95.3l0.4-4c6.3-0.1,1.8,4.6,7.7,3.6c2.3-5.7,9.7,0.6,11.8-2.4c0,0.4,2.8,0.6,2.6,2.4
							c0.9-3.1,3-0.7,4.8-1.5c0.7-0.9-0.5-0.9-1-1.8l4.1-1.1c1.6,1,2,2.8,0.3,3.1c10.8,1.1,62.9,4,74.6,2.5
							c-1.5-2.3-5.1-0.8-6.5-4.4c3.1-2,4.5,0.7,5.9-1.4c1.2,5.4,6.8,1.3,9.1,6.8l0.9-3.1l1.5,1.9c13.6-3.2,3.1-1.6,15.1-0.8
							c7-0.5,10.3-4.7,14.2-3.2c-0.6,0-2.1-1.9-0.3-2.7c0.3,2.7,4.8-1.9,5.7,0.8c1.8-0.3,7.5,0,5.6-3.7c1,1.8,6.1,2.6,3,4.2
							c1.7,0.1,3.4,0.7,4.6-0.2l-2.2-1c5.8-0.5,9,2.3,12.8-1l-2.2-1.5c3.5-0.2,6.4-0.5,7.8,3.1l-3.6,1.1c5.8-0.1,9.3-0.3,14.1-2.3
							l-1.7-0.1c6.1-3.6,38.2-6.7,43.9-11.2l-2.6-2.8l4.9-2.4c-0.6,0-2.3,9.2-2.8,8.3c10.4-0.3,64.6-2.5,74.2-0.6
							c3.9,1.6,0.7,4.5,0.7,4.9c4.7-1.1,2-3,6.1-2.8c1.1,0.5-0.2,2.2-0.8,2.6c1.8-0.3,3.4,0.6,3.5-0.7c-2.2-1-1.3-4.5-2.2-6.8
							l5.2,0.3l-0.2,2.2c1.2,0.1,2.9-6.1,8-4.9c8.6,1,17.9,0.2,26.5,0.7c-0.1,1.3-1.9,2.1-3.8,2.9c1.2,0.1,2.9-0.3,4,0.7
							c-2.1-2.4,3.6-1.6,2-2.6c6.3-5.4,14.5-0.5,20-4.1c0.5-4.9,11.9-83.8,11.9-89.6c1.7,0.1,3.4,0.2,4,0.7c-0.4-1.4-3.8-2-5.6-1.2
							l-0.3,3.1c-4.2,1.1-1-1.8-5-1.6c-0.2-2.5,3.5-3.1,6.8-3.3c-3-0.3-5.9-2.1-7.1,0.6c-2.8-1.1,0.3-3.1-3-4.2
							c-2.4,0.7-5.5,3.2-8.3,1.7l0-0.4c-6.7-2.6-10.2,3.9-16.3,1.3l0.7-0.9c-2.2-1.5-6.4,0.5-10.3-1.1c1.1,0.5,2.1,2.4-0.3,2.7
							c-4.5-1.6-7.5,0-10.8-2l-3.1,2.5c-15.5-0.5-76.9,3.1-92.5,3.5l0.6-0.4c-23.8,1.2-72.6,1.1-97.1,4.5c-3.8-2.4-9-1.9-13-2.6
							c2.2,1,1.4,2.8-0.3,2.7c-12.1-0.3-0.8,1.7-13,2.7c-14.1,2.3-67.9-0.3-80.4-2.4c-6.7,3.6-15.1,0.9-21.6,3.2l0.7-0.9
							c-7.1,1.4-47-2-55.2-0.7L85-9.1c-7.2,2.2-6.2-1.7-11.8-2.9c0.7,4.1-5.4,6.4-7.7,6.7l0.1-0.9C62-5.6,54-2.1,48.2-1.6l0.2-2.2
							c-4.9,2.4-14,1.4-17.5,1.6C23-3.1,10.7-6.9,0-4l-6.9-6.3l-1,0.6c0,0-11.1,76.3,3,92.6l-0.2,2.2l2.8-0.3
							c3.3,1.1,4.9-1.5,4.7,0.7l-4.6-0.3c3.4,0.6,1,1.8-0.3,3.1c1.4,0.2,2.8,0.5,3.9,1.2c0.7-0.9-0.5-0.9-1-1.4
							c1.8-0.8,4.3-2.9,6.5-1.8c3.4,0.2,0.2,3.6,4.2,3.8c21.2,1.7,41.7,4.3,63.1,3.8c0.5,0.9-0.1,0.9-0.7,1.3c6.4-1,12.2-0.6,18-1.6
							c1.6,1,2.1,2.4,2.6,3.3C93.1,95,126.5,94.8,127,95.3z"/>
					</g>
				</g>
			</g>
		</g>
	</g>
</g>
</svg>
